<svg width="64" height="64" viewBox="0 0 64 64" fill="none" xmlns="http://www.w3.org/2000/svg">
<rect width="64" height="64" fill="black"/>
<path d="M16.8301 33.3105L16.9941 34.4355L17.2344 33.4219L18.9219 27.4688H19.8711L21.5176 33.4219L21.752 34.4531L21.9336 33.3047L23.2578 27.4688H24.3887L22.3203 36H21.2949L19.5371 29.7832L19.4023 29.1328L19.2676 29.7832L17.4453 36H16.4199L14.3574 27.4688H15.4824L16.8301 33.3105ZM24.7695 35.4316C24.7695 35.2441 24.8242 35.0879 24.9336 34.9629C25.0469 34.8379 25.2148 34.7754 25.4375 34.7754C25.6602 34.7754 25.8281 34.8379 25.9414 34.9629C26.0586 35.0879 26.1172 35.2441 26.1172 35.4316C26.1172 35.6113 26.0586 35.7617 25.9414 35.8828C25.8281 36.0039 25.6602 36.0645 25.4375 36.0645C25.2148 36.0645 25.0469 36.0039 24.9336 35.8828C24.8242 35.7617 24.7695 35.6113 24.7695 35.4316ZM30.5938 32.1973C29.6289 31.9199 28.9258 31.5801 28.4844 31.1777C28.0469 30.7715 27.8281 30.2715 27.8281 29.6777C27.8281 29.0059 28.0957 28.4512 28.6309 28.0137C29.1699 27.5723 29.8691 27.3516 30.7285 27.3516C31.3145 27.3516 31.8359 27.4648 32.293 27.6914C32.7539 27.918 33.1094 28.2305 33.3594 28.6289C33.6133 29.0273 33.7402 29.4629 33.7402 29.9355H32.6094C32.6094 29.4199 32.4453 29.0156 32.1172 28.7227C31.7891 28.4258 31.3262 28.2773 30.7285 28.2773C30.1738 28.2773 29.7402 28.4004 29.4277 28.6465C29.1191 28.8887 28.9648 29.2266 28.9648 29.6602C28.9648 30.0078 29.1113 30.3027 29.4043 30.5449C29.7012 30.7832 30.2031 31.002 30.9102 31.2012C31.6211 31.4004 32.1758 31.6211 32.5742 31.8633C32.9766 32.1016 33.2734 32.3809 33.4648 32.7012C33.6602 33.0215 33.7578 33.3984 33.7578 33.832C33.7578 34.5234 33.4883 35.0781 32.9492 35.4961C32.4102 35.9102 31.6895 36.1172 30.7871 36.1172C30.2012 36.1172 29.6543 36.0059 29.1465 35.7832C28.6387 35.5566 28.2461 35.248 27.9688 34.8574C27.6953 34.4668 27.5586 34.0234 27.5586 33.5273H28.6895C28.6895 34.043 28.8789 34.4512 29.2578 34.752C29.6406 35.0488 30.1504 35.1973 30.7871 35.1973C31.3809 35.1973 31.8359 35.0762 32.1523 34.834C32.4688 34.5918 32.627 34.2617 32.627 33.8438C32.627 33.4258 32.4805 33.1035 32.1875 32.877C31.8945 32.6465 31.3633 32.4199 30.5938 32.1973ZM36.8047 33.0645L36.125 33.7734V36H35.041V27H36.125V32.4434L36.7051 31.7461L38.6797 29.6602H39.998L37.5312 32.3086L40.2852 36H39.0137L36.8047 33.0645ZM42.2949 36H41.2109V29.6602H42.2949V36ZM41.123 27.9785C41.123 27.8027 41.1758 27.6543 41.2812 27.5332C41.3906 27.4121 41.5508 27.3516 41.7617 27.3516C41.9727 27.3516 42.1328 27.4121 42.2422 27.5332C42.3516 27.6543 42.4062 27.8027 42.4062 27.9785C42.4062 28.1543 42.3516 28.3008 42.2422 28.418C42.1328 28.5352 41.9727 28.5938 41.7617 28.5938C41.5508 28.5938 41.3906 28.5352 41.2812 28.418C41.1758 28.3008 41.123 28.1543 41.123 27.9785ZM49.3906 32.9004C49.3906 33.8652 49.1699 34.6426 48.7285 35.2324C48.2871 35.8223 47.6895 36.1172 46.9355 36.1172C46.166 36.1172 45.5605 35.873 45.1191 35.3848V38.4375H44.0352V29.6602H45.0254L45.0781 30.3633C45.5195 29.8164 46.1328 29.543 46.918 29.543C47.6797 29.543 48.2812 29.8301 48.7227 30.4043C49.168 30.9785 49.3906 31.7773 49.3906 32.8008V32.9004ZM48.3066 32.7773C48.3066 32.0625 48.1543 31.498 47.8496 31.084C47.5449 30.6699 47.127 30.4629 46.5957 30.4629C45.9395 30.4629 45.4473 30.7539 45.1191 31.3359V34.3652C45.4434 34.9434 45.9395 35.2324 46.6074 35.2324C47.127 35.2324 47.5391 35.0273 47.8438 34.6172C48.1523 34.2031 48.3066 33.5898 48.3066 32.7773Z" fill="#CF3636"/>
</svg>
